<svg width="756" height="756" xmlns="http://www.w3.org/2000/svg" xmlns:xlink="http://www.w3.org/1999/xlink" overflow="hidden"><defs><clipPath id="clip0"><rect x="0" y="0" width="756" height="756"/></clipPath></defs><g clip-path="url(#clip0)"><rect x="0" y="0" width="756" height="756" fill="#FFFFFF"/><path d="M315 63C332.397 63 346.5 77.103 346.5 94.5L346.5 315C346.5 332.397 332.397 346.5 315 346.5L94.5 346.5C77.103 346.5 63 332.397 63 315L63 94.5C63 77.103 77.103 63 94.5 63Z" fill="#47BE7D"/><path d="M315 409.5C332.397 409.5 346.5 423.603 346.5 441L346.5 661.5C346.5 678.897 332.397 693 315 693L94.5 693C77.103 693 63 678.897 63 661.5L63 441C63 423.603 77.103 409.5 94.5 409.5Z" fill="#47BE7D"/><path d="M661.5 63C678.897 63 693 77.103 693 94.5L693 315C693 332.397 678.897 346.5 661.5 346.5L441 346.5C423.603 346.5 409.5 332.397 409.5 315L409.5 94.5C409.5 77.103 423.603 63 441 63Z" fill="#47BE7D"/><path d="M661.5 409.5C678.897 409.5 693 423.603 693 441L693 661.5C693 678.897 678.897 693 661.5 693L441 693C423.603 693 409.5 678.897 409.5 661.5L409.5 441C409.5 423.603 423.603 409.5 441 409.5Z" fill="#47BE7D"/></g></svg>